STARTFONT 2.1
FONT -Monotype-Times New Roman-Bold-I-Normal--17-120-100-100-P-88-iso8859-2
SIZE 12 100 100
FONTBOUNDINGBOX 20 20 -3 -4

STARTPROPERTIES 24
FOUNDRY "Monotype"
FAMILY_NAME "Times New Roman"
WEIGHT_NAME "Bold"
SLANT "I"
SETWIDTH_NAME "Normal"
ADD_STYLE_NAME ""
PIXEL_SIZE 17
POINT_SIZE 120
RESOLUTION_X 100
RESOLUTION_Y 100
SPACING "P"
AVERAGE_WIDTH 88
CHARSET_REGISTRY "iso8859"
CHARSET_ENCODING "2"
FACE_NAME "Times New Roman Bold Italic ISO Latin2"
_DEC_DEVICE_FONTNAMES "PS=timesnewroman-bit-lat2"
COPYRIGHT "Copyright (c) 1994 Monotype Typography Ltd."
CAP_HEIGHT 13
X_HEIGHT 9
WEIGHT 10
QUAD_WIDTH 9
DEFAULT_CHAR 160
FONT_DESCENT 4
FONT_ASCENT 16
ENDPROPERTIES

CHARS 191

STARTCHAR space
ENCODING 32
SWIDTH 250 0
DWIDTH 4 0
BBX 0 0 0 0
BITMAP
ENDCHAR

STARTCHAR exclam
ENCODING 33
SWIDTH 389 0
DWIDTH 7 0
BBX 5 12 1 0
BITMAP
08
18
18
18
30
30
20
20
00
40
E0
40
ENDCHAR

STARTCHAR quotedbl
ENCODING 34
SWIDTH 555 0
DWIDTH 9 0
BBX 7 6 1 6
BITMAP
66
66
66
CC
CC
88
ENDCHAR

STARTCHAR numbersign
ENCODING 35
SWIDTH 500 0
DWIDTH 9 0
BBX 8 13 0 -1
BITMAP
12
12
12
12
7F
24
24
24
FE
48
48
48
48
ENDCHAR

STARTCHAR dollar
ENCODING 36
SWIDTH 500 0
DWIDTH 9 0
BBX 8 14 0 -1
BITMAP
04
1E
37
69
68
78
38
1C
16
96
A6
EC
78
40
ENDCHAR

STARTCHAR percent
ENCODING 37
SWIDTH 833 0
DWIDTH 14 0
BBX 12 12 1 0
BITMAP
3830
6C60
CCC0
CD80
CF00
DBE0
77B0
0F30
1B30
3330
6360
C1C0
ENDCHAR

STARTCHAR ampersand
ENCODING 38
SWIDTH 778 0
DWIDTH 13 0
BBX 13 12 0 0
BITMAP
03C0
06E0
0EE0
0EC0
0780
1E78
3730
6760
E3C0
E380
F7D8
7CF0
ENDCHAR

STARTCHAR quoteright
ENCODING 39
SWIDTH 333 0
DWIDTH 6 0
BBX 3 5 2 6
BITMAP
60
60
20
40
80
ENDCHAR

STARTCHAR parenleft
ENCODING 40
SWIDTH 333 0
DWIDTH 6 0
BBX 7 15 -1 -3
BITMAP
06
0C
18
30
30
60
60
C0
C0
C0
C0
C0
C0
C0
60
ENDCHAR

STARTCHAR parenright
ENCODING 41
SWIDTH 333 0
DWIDTH 6 0
BBX 7 15 -2 -3
BITMAP
0C
06
06
06
06
06
06
06
0C
0C
18
18
30
60
C0
ENDCHAR

STARTCHAR asterisk
ENCODING 42
SWIDTH 500 0
DWIDTH 9 0
BBX 6 7 1 5
BITMAP
30
30
B4
78
30
48
84
ENDCHAR

STARTCHAR plus
ENCODING 43
SWIDTH 570 0
DWIDTH 10 0
BBX 9 9 0 0
BITMAP
0800
0800
0800
0800
FF80
0800
0800
0800
0800
ENDCHAR

STARTCHAR comma
ENCODING 44
SWIDTH 250 0
DWIDTH 4 0
BBX 3 5 -1 -3
BITMAP
60
60
20
40
80
ENDCHAR

STARTCHAR minus
ENCODING 45
SWIDTH 606 0
DWIDTH 10 0
BBX 9 1 0 4
BITMAP
FF80
ENDCHAR

STARTCHAR period
ENCODING 46
SWIDTH 250 0
DWIDTH 4 0
BBX 3 3 -1 0
BITMAP
40
E0
40
ENDCHAR

STARTCHAR slash
ENCODING 47
SWIDTH 278 0
DWIDTH 5 0
BBX 9 12 -2 0
BITMAP
0180
0300
0300
0600
0600
0C00
1800
1800
3000
6000
6000
C000
ENDCHAR

STARTCHAR zero
ENCODING 48
SWIDTH 500 0
DWIDTH 8 0
BBX 9 12 -1 0
BITMAP
1E00
3300
7380
7380
7380
E380
E380
E700
E700
E700
6600
3C00
ENDCHAR

STARTCHAR one
ENCODING 49
SWIDTH 500 0
DWIDTH 8 0
BBX 6 12 0 0
BITMAP
0C
3C
1C
1C
38
38
38
38
70
70
70
F8
ENDCHAR

STARTCHAR two
ENCODING 50
SWIDTH 500 0
DWIDTH 8 0
BBX 9 12 -2 0
BITMAP
0E00
1F00
2380
0380
0380
0300
0600
0C00
1000
2200
7E00
FC00
ENDCHAR

STARTCHAR three
ENCODING 51
SWIDTH 500 0
DWIDTH 8 0
BBX 8 12 -1 0
BITMAP
1E
27
07
06
0C
38
1C
0E
0E
0C
D8
F0
ENDCHAR

STARTCHAR four
ENCODING 52
SWIDTH 500 0
DWIDTH 8 0
BBX 9 12 -2 0
BITMAP
0080
0180
0380
0780
0B80
1700
2700
7F80
FF80
0E00
0E00
0E00
ENDCHAR

STARTCHAR five
ENCODING 53
SWIDTH 500 0
DWIDTH 8 0
BBX 8 12 -1 0
BITMAP
0F
1F
10
20
3C
7E
0E
0E
0E
0C
D8
F0
ENDCHAR

STARTCHAR six
ENCODING 54
SWIDTH 500 0
DWIDTH 8 0
BBX 8 12 0 0
BITMAP
03
0C
18
30
7C
6E
EE
EE
EE
EE
EC
78
ENDCHAR

STARTCHAR seven
ENCODING 55
SWIDTH 500 0
DWIDTH 8 0
BBX 8 12 0 0
BITMAP
3F
7E
7E
84
04
08
10
10
20
40
40
80
ENDCHAR

STARTCHAR eight
ENCODING 56
SWIDTH 500 0
DWIDTH 8 0
BBX 7 12 0 0
BITMAP
3C
6E
EE
EE
EC
38
6C
EE
EE
EE
EC
78
ENDCHAR

STARTCHAR nine
ENCODING 57
SWIDTH 500 0
DWIDTH 8 0
BBX 8 12 -1 0
BITMAP
1E
37
77
77
77
77
76
3E
0C
18
30
C0
ENDCHAR

STARTCHAR colon
ENCODING 58
SWIDTH 333 0
DWIDTH 6 0
BBX 5 8 0 0
BITMAP
10
38
10
00
00
40
E0
40
ENDCHAR

STARTCHAR semicolon
ENCODING 59
SWIDTH 333 0
DWIDTH 6 0
BBX 5 11 0 -3
BITMAP
10
38
10
00
00
00
60
60
20
40
80
ENDCHAR

STARTCHAR less
ENCODING 60
SWIDTH 570 0
DWIDTH 10 0
BBX 9 9 0 0
BITMAP
0180
0600
1800
6000
8000
6000
1800
0600
0180
ENDCHAR

STARTCHAR equal
ENCODING 61
SWIDTH 570 0
DWIDTH 10 0
BBX 9 4 0 2
BITMAP
FF80
0000
0000
FF80
ENDCHAR

STARTCHAR greater
ENCODING 62
SWIDTH 570 0
DWIDTH 10 0
BBX 9 9 1 0
BITMAP
C000
3000
0C00
0300
0080
0300
0C00
3000
C000
ENDCHAR

STARTCHAR question
ENCODING 63
SWIDTH 500 0
DWIDTH 9 0
BBX 7 12 1 0
BITMAP
3C
66
66
66
0C
18
30
20
00
40
E0
40
ENDCHAR

STARTCHAR at
ENCODING 64
SWIDTH 832 0
DWIDTH 14 0
BBX 14 15 0 -4
BITMAP
0FE0
1010
2008
4364
46C4
8CC4
8CC4
99C4
9B88
9DB4
48C4
4008
2018
1860
0780
ENDCHAR

STARTCHAR A
ENCODING 65
SWIDTH 667 0
DWIDTH 11 0
BBX 12 12 -2 0
BITMAP
0020
0060
00E0
01E0
02E0
04E0
08E0
0FE0
10E0
20E0
40E0
E1F0
ENDCHAR

STARTCHAR B
ENCODING 66
SWIDTH 667 0
DWIDTH 11 0
BBX 11 12 -1 0
BITMAP
3FC0
1CE0
1CE0
1CE0
39C0
3F00
3980
39C0
71C0
71C0
7380
FF00
ENDCHAR

STARTCHAR C
ENCODING 67
SWIDTH 667 0
DWIDTH 11 0
BBX 11 12 0 0
BITMAP
07A0
1CC0
3840
7040
7000
E000
E000
E000
E000
E080
7100
3E00
ENDCHAR

STARTCHAR D
ENCODING 68
SWIDTH 722 0
DWIDTH 12 0
BBX 12 12 -1 0
BITMAP
3FC0
1CE0
1C70
1C70
3870
3870
3870
3860
70E0
70C0
7180
FE00
ENDCHAR

STARTCHAR E
ENCODING 69
SWIDTH 667 0
DWIDTH 11 0
BBX 12 12 -1 0
BITMAP
3FF0
1C30
1C10
1C40
3840
3F80
3880
3880
7020
7060
70C0
FFC0
ENDCHAR

STARTCHAR F
ENCODING 70
SWIDTH 667 0
DWIDTH 11 0
BBX 12 12 -1 0
BITMAP
3FF0
1C30
1C10
1C40
3840
3F80
3880
3880
7000
7000
7000
F800
ENDCHAR

STARTCHAR G
ENCODING 71
SWIDTH 722 0
DWIDTH 12 0
BBX 12 12 0 0
BITMAP
07D0
1860
3020
7020
6000
E000
E3E0
E1C0
E1C0
E1C0
7380
3F00
ENDCHAR

STARTCHAR H
ENCODING 72
SWIDTH 778 0
DWIDTH 13 0
BBX 14 12 -1 0
BITMAP
3E7C
1C38
1C38
1C38
3870
3FF0
3870
3870
70E0
70E0
70E0
F9F0
ENDCHAR

STARTCHAR I
ENCODING 73
SWIDTH 389 0
DWIDTH 7 0
BBX 7 12 -1 0
BITMAP
3E
1C
1C
1C
38
38
38
38
70
70
70
F8
ENDCHAR

STARTCHAR J
ENCODING 74
SWIDTH 500 0
DWIDTH 9 0
BBX 9 12 -1 0
BITMAP
0F80
0700
0700
0700
0E00
0E00
0E00
0E00
1C00
DC00
D800
7000
ENDCHAR

STARTCHAR K
ENCODING 75
SWIDTH 667 0
DWIDTH 11 0
BBX 13 12 -1 0
BITMAP
3E78
1C20
1C40
1C80
3900
3B00
3F80
3B80
71C0
71C0
70E0
F9F0
ENDCHAR

STARTCHAR L
ENCODING 76
SWIDTH 611 0
DWIDTH 10 0
BBX 11 12 -1 0
BITMAP
3E00
1C00
1C00
1C00
3800
3800
3800
3800
7020
7040
70C0
FFC0
ENDCHAR

STARTCHAR M
ENCODING 77
SWIDTH 889 0
DWIDTH 15 0
BBX 16 12 -1 0
BITMAP
380F
1C1E
1C2E
1C2E
2E5C
2E5C
2E9C
2F9C
4738
4638
4638
E47C
ENDCHAR

STARTCHAR N
ENCODING 78
SWIDTH 722 0
DWIDTH 12 0
BBX 13 12 -1 0
BITMAP
3838
1C10
1C10
1E10
2E20
2720
23A0
23E0
41C0
41C0
40C0
E040
ENDCHAR

STARTCHAR O
ENCODING 79
SWIDTH 722 0
DWIDTH 12 0
BBX 11 12 0 0
BITMAP
0780
19C0
30E0
70E0
60E0
E0E0
E0E0
E0C0
E1C0
E180
7300
3C00
ENDCHAR

STARTCHAR P
ENCODING 80
SWIDTH 611 0
DWIDTH 10 0
BBX 11 12 -1 0
BITMAP
3FC0
1CE0
1CE0
1CE0
38C0
3980
3E00
3800
7000
7000
7000
F800
ENDCHAR

STARTCHAR Q
ENCODING 81
SWIDTH 722 0
DWIDTH 12 0
BBX 11 15 0 -3
BITMAP
0780
19C0
30E0
70E0
60E0
E0E0
E0E0
E0C0
E1C0
E180
7300
3C00
2000
7F20
9FC0
ENDCHAR

STARTCHAR R
ENCODING 82
SWIDTH 667 0
DWIDTH 11 0
BBX 12 12 -1 0
BITMAP
3FC0
1CE0
1CE0
1CE0
39C0
3F00
3B80
3B80
71C0
71C0
70E0
F9F0
ENDCHAR

STARTCHAR S
ENCODING 83
SWIDTH 556 0
DWIDTH 9 0
BBX 11 12 -1 0
BITMAP
0720
1CE0
3840
3840
3800
1E00
0F00
0380
4380
4380
E700
9E00
ENDCHAR

STARTCHAR T
ENCODING 84
SWIDTH 611 0
DWIDTH 10 0
BBX 11 12 0 0
BITMAP
FFE0
CE60
8E40
0E00
1C00
1C00
1C00
1C00
3800
3800
3800
7C00
ENDCHAR

STARTCHAR U
ENCODING 85
SWIDTH 722 0
DWIDTH 12 0
BBX 12 12 0 0
BITMAP
7C70
3820
3820
3820
7040
7040
7040
7040
E080
E080
6100
3E00
ENDCHAR

STARTCHAR V
ENCODING 86
SWIDTH 667 0
DWIDTH 11 0
BBX 12 12 0 0
BITMAP
F870
7020
7040
7080
7100
7100
7200
7400
7800
7000
6000
4000
ENDCHAR

STARTCHAR W
ENCODING 87
SWIDTH 889 0
DWIDTH 15 0
BBX 16 12 0 0
BITMAP
FBE7
71C2
71C4
71C4
73C8
73D0
75D0
79E0
79E0
71C0
6180
4100
ENDCHAR

STARTCHAR X
ENCODING 88
SWIDTH 667 0
DWIDTH 11 0
BBX 14 12 -2 0
BITMAP
1F3C
0E10
0E20
0740
0780
0380
0380
05C0
09C0
10E0
20E0
F1F0
ENDCHAR

STARTCHAR Y
ENCODING 89
SWIDTH 611 0
DWIDTH 10 0
BBX 11 12 0 0
BITMAP
F8E0
7040
7080
3900
3900
3A00
1C00
3800
3800
7000
7000
F800
ENDCHAR

STARTCHAR Z
ENCODING 90
SWIDTH 611 0
DWIDTH 10 0
BBX 11 12 -1 0
BITMAP
1FE0
31C0
2380
0380
0700
0E00
0E00
1C00
3880
3880
7180
FF00
ENDCHAR

STARTCHAR bracketleft
ENCODING 91
SWIDTH 333 0
DWIDTH 6 0
BBX 8 15 -1 -3
BITMAP
0F
0C
18
18
18
18
30
30
30
60
60
60
60
C0
F0
ENDCHAR

STARTCHAR backslash
ENCODING 92
SWIDTH 278 0
DWIDTH 5 0
BBX 9 12 -2 0
BITMAP
C000
6000
6000
3000
1800
1800
0C00
0600
0600
0300
0300
0180
ENDCHAR

STARTCHAR bracketright
ENCODING 93
SWIDTH 333 0
DWIDTH 6 0
BBX 8 15 -2 -3
BITMAP
0F
03
06
06
06
06
0C
0C
0C
18
18
18
18
30
F0
ENDCHAR

STARTCHAR asciicircum
ENCODING 94
SWIDTH 570 0
DWIDTH 10 0
BBX 7 6 1 6
BITMAP
10
28
28
44
44
82
ENDCHAR

STARTCHAR underscore
ENCODING 95
SWIDTH 500 0
DWIDTH 9 0
BBX 9 1 0 -2
BITMAP
FF80
ENDCHAR

STARTCHAR quoteleft
ENCODING 96
SWIDTH 333 0
DWIDTH 6 0
BBX 3 5 2 7
BITMAP
20
40
80
C0
C0
ENDCHAR

STARTCHAR a
ENCODING 97
SWIDTH 500 0
DWIDTH 9 0
BBX 9 8 0 0
BITMAP
1B80
3700
6700
E700
EE00
EE00
FE00
6F00
ENDCHAR

STARTCHAR b
ENCODING 98
SWIDTH 500 0
DWIDTH 8 0
BBX 8 12 0 0
BITMAP
78
38
38
38
76
7F
77
77
E7
E6
EC
78
ENDCHAR

STARTCHAR c
ENCODING 99
SWIDTH 444 0
DWIDTH 8 0
BBX 7 8 1 0
BITMAP
1C
36
66
E0
E0
E0
E4
78
ENDCHAR

STARTCHAR d
ENCODING 100
SWIDTH 500 0
DWIDTH 8 0
BBX 9 12 0 0
BITMAP
0780
0380
0380
0380
1F00
3700
6700
E700
EE00
EE00
FE00
6F00
ENDCHAR

STARTCHAR e
ENCODING 101
SWIDTH 444 0
DWIDTH 8 0
BBX 7 8 1 0
BITMAP
1C
36
66
EC
F8
E0
E4
78
ENDCHAR

STARTCHAR f
ENCODING 102
SWIDTH 333 0
DWIDTH 6 0
BBX 10 15 -2 -3
BITMAP
01C0
0340
0700
0700
1F80
0E00
0E00
0E00
1C00
1C00
1C00
1C00
3800
B000
E000
ENDCHAR

STARTCHAR g
ENCODING 103
SWIDTH 500 0
DWIDTH 8 0
BBX 10 11 -1 -3
BITMAP
1E00
37C0
7700
7700
7600
3C00
6000
3E00
7F00
C600
7C00
ENDCHAR

STARTCHAR h
ENCODING 104
SWIDTH 556 0
DWIDTH 8 0
BBX 8 12 0 0
BITMAP
78
38
38
38
76
7F
77
77
EE
EE
EE
EF
ENDCHAR

STARTCHAR i
ENCODING 105
SWIDTH 278 0
DWIDTH 5 0
BBX 5 12 0 0
BITMAP
38
38
00
00
F0
70
70
70
E0
E0
E0
F0
ENDCHAR

STARTCHAR j
ENCODING 106
SWIDTH 278 0
DWIDTH 5 0
BBX 9 16 -3 -4
BITMAP
0380
0380
0000
0000
0F00
0700
0700
0700
0E00
0E00
0E00
0E00
1C00
1C00
D800
7000
ENDCHAR

STARTCHAR k
ENCODING 107
SWIDTH 500 0
DWIDTH 8 0
BBX 9 12 0 0
BITMAP
7800
3800
3800
3800
7300
7200
7400
7800
EC00
EE00
EE80
E700
ENDCHAR

STARTCHAR l
ENCODING 108
SWIDTH 278 0
DWIDTH 5 0
BBX 5 12 0 0
BITMAP
78
38
38
38
70
70
70
70
E0
E0
E0
F0
ENDCHAR

STARTCHAR m
ENCODING 109
SWIDTH 778 0
DWIDTH 13 0
BBX 12 8 0 0
BITMAP
F760
7FF0
7770
7770
EEE0
EEE0
EEE0
EEF0
ENDCHAR

STARTCHAR n
ENCODING 110
SWIDTH 556 0
DWIDTH 8 0
BBX 8 8 0 0
BITMAP
F6
7F
77
77
EE
EE
EE
EF
ENDCHAR

STARTCHAR o
ENCODING 111
SWIDTH 500 0
DWIDTH 8 0
BBX 8 8 0 0
BITMAP
1E
37
67
E7
E7
E6
EC
78
ENDCHAR

STARTCHAR p
ENCODING 112
SWIDTH 500 0
DWIDTH 8 0
BBX 10 11 -2 -3
BITMAP
3B80
1DC0
1DC0
1DC0
39C0
3980
3B00
3E00
7000
7000
F800
ENDCHAR

STARTCHAR q
ENCODING 113
SWIDTH 500 0
DWIDTH 8 0
BBX 8 11 0 -3
BITMAP
1B
37
67
E7
EE
EE
FE
6E
1C
1C
3E
ENDCHAR

STARTCHAR r
ENCODING 114
SWIDTH 389 0
DWIDTH 7 0
BBX 7 8 0 0
BITMAP
F6
7A
70
70
E0
E0
E0
E0
ENDCHAR

STARTCHAR s
ENCODING 115
SWIDTH 389 0
DWIDTH 7 0
BBX 7 8 0 0
BITMAP
3A
76
72
38
38
9C
DC
B8
ENDCHAR

STARTCHAR t
ENCODING 116
SWIDTH 278 0
DWIDTH 5 0
BBX 5 11 0 0
BITMAP
08
18
30
F8
70
70
70
E0
E0
E8
70
ENDCHAR

STARTCHAR u
ENCODING 117
SWIDTH 556 0
DWIDTH 8 0
BBX 8 8 0 0
BITMAP
F7
77
77
77
EE
EE
FE
6F
ENDCHAR

STARTCHAR v
ENCODING 118
SWIDTH 444 0
DWIDTH 8 0
BBX 8 8 0 0
BITMAP
33
F3
71
72
74
78
30
20
ENDCHAR

STARTCHAR w
ENCODING 119
SWIDTH 667 0
DWIDTH 11 0
BBX 11 8 0 0
BITMAP
3160
F360
7320
7740
7F80
7700
3600
2400
ENDCHAR

STARTCHAR x
ENCODING 120
SWIDTH 500 0
DWIDTH 8 0
BBX 10 8 -1 0
BITMAP
30C0
7940
1A00
1C00
0E00
1600
A780
C300
ENDCHAR

STARTCHAR y
ENCODING 121
SWIDTH 444 0
DWIDTH 8 0
BBX 9 12 -1 -4
BITMAP
3180
7180
3880
3900
1D00
0E00
0E00
0400
0800
0800
D000
E000
ENDCHAR

STARTCHAR z
ENCODING 122
SWIDTH 389 0
DWIDTH 7 0
BBX 8 9 0 -1
BITMAP
1F
3E
44
08
10
20
4C
EC
38
ENDCHAR

STARTCHAR braceleft
ENCODING 123
SWIDTH 348 0
DWIDTH 6 0
BBX 7 15 -1 -3
BITMAP
06
0C
18
18
18
18
30
C0
60
60
60
C0
C0
C0
60
ENDCHAR

STARTCHAR bar
ENCODING 124
SWIDTH 220 0
DWIDTH 4 0
BBX 1 16 1 -4
BITMAP
80
80
80
80
80
80
80
80
80
80
80
80
80
80
80
80
ENDCHAR

STARTCHAR braceright
ENCODING 125
SWIDTH 348 0
DWIDTH 6 0
BBX 7 15 -2 -3
BITMAP
0C
06
06
06
0C
0C
0C
06
18
30
30
30
30
60
C0
ENDCHAR

STARTCHAR asciitilde
ENCODING 126
SWIDTH 570 0
DWIDTH 10 0
BBX 8 3 1 4
BITMAP
31
7E
8C
ENDCHAR

STARTCHAR space
ENCODING 160
SWIDTH 250 0
DWIDTH 5 0
BBX 0 0 0 0
BITMAP
ENDCHAR

STARTCHAR Aogonek
ENCODING 161
SWIDTH 667 0
DWIDTH 11 0
BBX 12 15 -2 -3
BITMAP
0020
0060
00E0
01E0
02E0
04E0
08E0
0FE0
10E0
20E0
40E0
E1F0
0080
00C0
0060
ENDCHAR

STARTCHAR breve
ENCODING 162
SWIDTH 333 0
DWIDTH 6 0
BBX 5 3 1 9
BITMAP
88
F8
70
ENDCHAR

STARTCHAR Lslash
ENCODING 163
SWIDTH 611 0
DWIDTH 10 0
BBX 11 12 -1 0
BITMAP
3E00
1C00
1C00
1C00
3A00
3C00
7800
B800
7020
7040
70C0
FFC0
ENDCHAR

STARTCHAR currency
ENCODING 164
SWIDTH 500 0
DWIDTH 9 0
BBX 7 7 1 1
BITMAP
BA
44
82
82
82
44
BA
ENDCHAR

STARTCHAR Lcaron
ENCODING 165
SWIDTH 611 0
DWIDTH 10 0
BBX 12 12 -1 0
BITMAP
3E30
1C30
1C10
1C20
3840
3800
3800
3800
7020
7040
70C0
FFC0
ENDCHAR

STARTCHAR Sacute
ENCODING 166
SWIDTH 556 0
DWIDTH 9 0
BBX 11 15 -1 0
BITMAP
0180
0300
0000
0720
1CE0
3840
3840
3800
1E00
0F00
0380
4380
4380
E700
9E00
ENDCHAR

STARTCHAR section
ENCODING 167
SWIDTH 500 0
DWIDTH 9 0
BBX 9 16 0 -4
BITMAP
0F00
1D80
3980
3880
1800
1E00
3700
7700
7700
7600
3C00
0C00
8E00
CE00
DC00
7800
ENDCHAR

STARTCHAR dieresis
ENCODING 168
SWIDTH 333 0
DWIDTH 6 0
BBX 5 2 0 9
BITMAP
D8
D8
ENDCHAR

STARTCHAR Scaron
ENCODING 169
SWIDTH 556 0
DWIDTH 9 0
BBX 11 16 -1 0
BITMAP
0CC0
0780
0300
0000
0720
1CE0
3840
3840
3800
1E00
0F00
0380
4380
4380
E700
9E00
ENDCHAR

STARTCHAR Scommaaccent
ENCODING 170
SWIDTH 556 0
DWIDTH 9 0
BBX 11 16 -1 -4
BITMAP
0720
1CE0
3840
3840
3800
1E00
0F00
0380
4380
4380
E700
9E00
0000
1800
0800
1000
ENDCHAR

STARTCHAR Tcaron
ENCODING 171
SWIDTH 611 0
DWIDTH 10 0
BBX 11 16 0 0
BITMAP
1980
0F00
0600
0000
FFE0
CE60
8E40
0E00
1C00
1C00
1C00
1C00
3800
3800
3800
7C00
ENDCHAR

STARTCHAR Zacute
ENCODING 172
SWIDTH 611 0
DWIDTH 10 0
BBX 11 15 -1 0
BITMAP
00C0
0180
0000
1FE0
31C0
2380
0380
0700
0E00
0E00
1C00
3880
3880
7180
FF00
ENDCHAR

STARTCHAR hyphen
ENCODING 173
SWIDTH 333 0
DWIDTH 6 0
BBX 5 2 0 6
BITMAP
F8
F8
ENDCHAR

STARTCHAR Zcaron
ENCODING 174
SWIDTH 611 0
DWIDTH 10 0
BBX 11 16 -1 0
BITMAP
0CC0
0780
0300
0000
1FE0
31C0
2380
0380
0700
0E00
0E00
1C00
3880
3880
7180
FF00
ENDCHAR

STARTCHAR Zdotaccent
ENCODING 175
SWIDTH 611 0
DWIDTH 10 0
BBX 11 15 -1 0
BITMAP
0300
0300
0000
1FE0
31C0
2380
0380
0700
0E00
0E00
1C00
3880
3880
7180
FF00
ENDCHAR

STARTCHAR degree
ENCODING 176
SWIDTH 400 0
DWIDTH 7 0
BBX 6 6 0 6
BITMAP
78
CC
84
84
CC
78
ENDCHAR

STARTCHAR aogonek
ENCODING 177
SWIDTH 500 0
DWIDTH 9 0
BBX 9 11 0 -3
BITMAP
1B80
3700
6700
E700
EE00
EE00
FE00
6F00
0800
0C00
0600
ENDCHAR

STARTCHAR ogonek
ENCODING 178
SWIDTH 333 0
DWIDTH 6 0
BBX 3 3 1 -3
BITMAP
80
C0
60
ENDCHAR

STARTCHAR lslash
ENCODING 179
SWIDTH 278 0
DWIDTH 5 0
BBX 7 12 -1 0
BITMAP
3C
1C
1C
1C
3A
3C
78
B8
70
70
70
78
ENDCHAR

STARTCHAR acute
ENCODING 180
SWIDTH 333 0
DWIDTH 6 0
BBX 3 2 1 10
BITMAP
60
C0
ENDCHAR

STARTCHAR lcaron
ENCODING 181
SWIDTH 387 0
DWIDTH 6 0
BBX 8 12 0 0
BITMAP
7B
3B
39
3A
74
70
70
70
E0
E0
E0
F0
ENDCHAR

STARTCHAR sacute
ENCODING 182
SWIDTH 389 0
DWIDTH 7 0
BBX 7 11 0 0
BITMAP
0C
18
00
3A
76
72
38
38
9C
DC
B8
ENDCHAR

STARTCHAR caron
ENCODING 183
SWIDTH 333 0
DWIDTH 6 0
BBX 6 3 0 9
BITMAP
CC
78
30
ENDCHAR

STARTCHAR commaaccent
ENCODING 184
SWIDTH 333 0
DWIDTH 6 0
BBX 2 3 2 -4
BITMAP
C0
40
80
ENDCHAR

STARTCHAR scaron
ENCODING 185
SWIDTH 389 0
DWIDTH 7 0
BBX 7 12 0 0
BITMAP
66
3C
18
00
3A
76
72
38
38
9C
DC
B8
ENDCHAR

STARTCHAR scommaaccent
ENCODING 186
SWIDTH 389 0
DWIDTH 7 0
BBX 7 12 0 -4
BITMAP
3A
76
72
38
38
9C
DC
B8
00
30
10
20
ENDCHAR

STARTCHAR tcaron
ENCODING 187
SWIDTH 278 0
DWIDTH 6 0
BBX 8 11 0 0
BITMAP
0B
1B
31
FA
74
70
70
E0
E0
E8
70
ENDCHAR

STARTCHAR zacute
ENCODING 188
SWIDTH 389 0
DWIDTH 7 0
BBX 8 12 0 -1
BITMAP
03
06
00
1F
3E
44
08
10
20
4C
EC
38
ENDCHAR

STARTCHAR hungarumlaut
ENCODING 189
SWIDTH 333 0
DWIDTH 6 0
BBX 7 2 0 10
BITMAP
66
CC
ENDCHAR

STARTCHAR zcaron
ENCODING 190
SWIDTH 389 0
DWIDTH 7 0
BBX 9 13 0 -1
BITMAP
1980
0F00
0600
0000
1F00
3E00
4400
0800
1000
2000
4C00
EC00
3800
ENDCHAR

STARTCHAR zdotaccent
ENCODING 191
SWIDTH 389 0
DWIDTH 7 0
BBX 8 12 0 -1
BITMAP
06
06
00
1F
3E
44
08
10
20
4C
EC
38
ENDCHAR

STARTCHAR Racute
ENCODING 192
SWIDTH 667 0
DWIDTH 11 0
BBX 12 15 -1 0
BITMAP
0180
0300
0000
3FC0
1CE0
1CE0
1CE0
39C0
3F00
3B80
3B80
71C0
71C0
70E0
F9F0
ENDCHAR

STARTCHAR Aacute
ENCODING 193
SWIDTH 667 0
DWIDTH 11 0
BBX 13 15 -2 0
BITMAP
0018
0030
0000
0020
0060
00E0
01E0
02E0
04E0
08E0
0FE0
10E0
20E0
40E0
E1F0
ENDCHAR

STARTCHAR Acircumflex
ENCODING 194
SWIDTH 667 0
DWIDTH 11 0
BBX 14 16 -2 0
BITMAP
0030
0078
00CC
0000
0020
0060
00E0
01E0
02E0
04E0
08E0
0FE0
10E0
20E0
40E0
E1F0
ENDCHAR

STARTCHAR Abreve
ENCODING 195
SWIDTH 667 0
DWIDTH 11 0
BBX 14 16 -2 0
BITMAP
00CC
0078
0030
0000
0020
0060
00E0
01E0
02E0
04E0
08E0
0FE0
10E0
20E0
40E0
E1F0
ENDCHAR

STARTCHAR Adieresis
ENCODING 196
SWIDTH 667 0
DWIDTH 11 0
BBX 13 15 -2 0
BITMAP
00D8
00D8
0000
0020
0060
00E0
01E0
02E0
04E0
08E0
0FE0
10E0
20E0
40E0
E1F0
ENDCHAR

STARTCHAR Lacute
ENCODING 197
SWIDTH 611 0
DWIDTH 10 0
BBX 11 15 -1 0
BITMAP
0300
0600
0000
3E00
1C00
1C00
1C00
3800
3800
3800
3800
7020
7040
70C0
FFC0
ENDCHAR

STARTCHAR Cacute
ENCODING 198
SWIDTH 667 0
DWIDTH 11 0
BBX 11 15 0 0
BITMAP
00C0
0180
0000
07A0
1CC0
3840
7040
7000
E000
E000
E000
E000
E080
7100
3E00
ENDCHAR

STARTCHAR Ccedilla
ENCODING 199
SWIDTH 667 0
DWIDTH 11 0
BBX 11 15 0 -3
BITMAP
07A0
1CC0
3840
7040
7000
E000
E000
E000
E000
E080
7100
3E00
1800
0C00
3800
ENDCHAR

STARTCHAR Ccaron
ENCODING 200
SWIDTH 667 0
DWIDTH 11 0
BBX 11 16 0 0
BITMAP
0660
03C0
0180
0000
07A0
1CC0
3840
7040
7000
E000
E000
E000
E000
E080
7100
3E00
ENDCHAR

STARTCHAR Eacute
ENCODING 201
SWIDTH 667 0
DWIDTH 11 0
BBX 12 15 -1 0
BITMAP
00C0
0180
0000
3FF0
1C30
1C10
1C40
3840
3F80
3880
3880
7020
7060
70C0
FFC0
ENDCHAR

STARTCHAR Eogonek
ENCODING 202
SWIDTH 667 0
DWIDTH 11 0
BBX 12 15 -1 -3
BITMAP
3FF0
1C30
1C10
1C40
3840
3F80
3880
3880
7020
7060
70C0
FFC0
0200
0300
0180
ENDCHAR

STARTCHAR Edieresis
ENCODING 203
SWIDTH 667 0
DWIDTH 11 0
BBX 12 15 -1 0
BITMAP
06C0
06C0
0000
3FF0
1C30
1C10
1C40
3840
3F80
3880
3880
7020
7060
70C0
FFC0
ENDCHAR

STARTCHAR Ecaron
ENCODING 204
SWIDTH 667 0
DWIDTH 11 0
BBX 12 16 -1 0
BITMAP
0660
03C0
0180
0000
3FF0
1C30
1C10
1C40
3840
3F80
3880
3880
7020
7060
70C0
FFC0
ENDCHAR

STARTCHAR Iacute
ENCODING 205
SWIDTH 389 0
DWIDTH 7 0
BBX 7 15 -1 0
BITMAP
06
0C
00
3E
1C
1C
1C
38
38
38
38
70
70
70
F8
ENDCHAR

STARTCHAR Icircumflex
ENCODING 206
SWIDTH 389 0
DWIDTH 7 0
BBX 8 16 -1 0
BITMAP
0C
1E
33
00
3E
1C
1C
1C
38
38
38
38
70
70
70
F8
ENDCHAR

STARTCHAR Dcaron
ENCODING 207
SWIDTH 722 0
DWIDTH 12 0
BBX 12 16 -1 0
BITMAP
0660
03C0
0180
0000
3FC0
1CE0
1C70
1C70
3870
3870
3870
3860
70E0
70C0
7180
FE00
ENDCHAR

STARTCHAR Dcroat
ENCODING 208
SWIDTH 722 0
DWIDTH 12 0
BBX 12 12 -1 0
BITMAP
3FC0
1CE0
1C70
1C70
3870
7E70
3870
3860
70E0
70C0
7180
FE00
ENDCHAR

STARTCHAR Nacute
ENCODING 209
SWIDTH 722 0
DWIDTH 12 0
BBX 13 15 -1 0
BITMAP
00C0
0180
0000
3838
1C10
1C10
1E10
2E20
2720
23A0
23E0
41C0
41C0
40C0
E040
ENDCHAR

STARTCHAR Ncaron
ENCODING 210
SWIDTH 722 0
DWIDTH 12 0
BBX 13 16 -1 0
BITMAP
0660
03C0
0180
0000
3838
1C10
1C10
1E10
2E20
2720
23A0
23E0
41C0
41C0
40C0
E040
ENDCHAR

STARTCHAR Oacute
ENCODING 211
SWIDTH 722 0
DWIDTH 12 0
BBX 11 15 0 0
BITMAP
0180
0300
0000
0780
19C0
30E0
70E0
60E0
E0E0
E0E0
E0C0
E1C0
E180
7300
3C00
ENDCHAR

STARTCHAR Ocircumflex
ENCODING 212
SWIDTH 722 0
DWIDTH 12 0
BBX 11 16 0 0
BITMAP
0180
03C0
0660
0000
0780
19C0
30E0
70E0
60E0
E0E0
E0E0
E0C0
E1C0
E180
7300
3C00
ENDCHAR

STARTCHAR Ohungarumlaut
ENCODING 213
SWIDTH 722 0
DWIDTH 12 0
BBX 12 15 0 0
BITMAP
0330
0660
0000
0780
19C0
30E0
70E0
60E0
E0E0
E0E0
E0C0
E1C0
E180
7300
3C00
ENDCHAR

STARTCHAR Odieresis
ENCODING 214
SWIDTH 722 0
DWIDTH 12 0
BBX 11 15 0 0
BITMAP
06C0
06C0
0000
0780
19C0
30E0
70E0
60E0
E0E0
E0E0
E0C0
E1C0
E180
7300
3C00
ENDCHAR

STARTCHAR multiply
ENCODING 215
SWIDTH 570 0
DWIDTH 10 0
BBX 7 7 2 1
BITMAP
82
44
28
10
28
44
82
ENDCHAR

STARTCHAR Rcaron
ENCODING 216
SWIDTH 667 0
DWIDTH 11 0
BBX 12 16 -1 0
BITMAP
0CC0
0780
0300
0000
3FC0
1CE0
1CE0
1CE0
39C0
3F00
3B80
3B80
71C0
71C0
70E0
F9F0
ENDCHAR

STARTCHAR Uring
ENCODING 217
SWIDTH 722 0
DWIDTH 12 0
BBX 12 16 0 0
BITMAP
0180
0240
0240
0180
7C70
3820
3820
3820
7040
7040
7040
7040
E080
E080
6100
3E00
ENDCHAR

STARTCHAR Uacute
ENCODING 218
SWIDTH 722 0
DWIDTH 12 0
BBX 12 15 0 0
BITMAP
00C0
0180
0000
7C70
3820
3820
3820
7040
7040
7040
7040
E080
E080
6100
3E00
ENDCHAR

STARTCHAR Uhungarumlaut
ENCODING 219
SWIDTH 722 0
DWIDTH 12 0
BBX 12 15 0 0
BITMAP
0330
0660
0000
7C70
3820
3820
3820
7040
7040
7040
7040
E080
E080
6100
3E00
ENDCHAR

STARTCHAR Udieresis
ENCODING 220
SWIDTH 722 0
DWIDTH 12 0
BBX 12 15 0 0
BITMAP
06C0
06C0
0000
7C70
3820
3820
3820
7040
7040
7040
7040
E080
E080
6100
3E00
ENDCHAR

STARTCHAR Yacute
ENCODING 221
SWIDTH 611 0
DWIDTH 10 0
BBX 11 15 0 0
BITMAP
0180
0300
0000
F8E0
7040
7080
3900
3900
3A00
1C00
3800
3800
7000
7000
F800
ENDCHAR

STARTCHAR Tcommaaccent
ENCODING 222
SWIDTH 611 0
DWIDTH 10 0
BBX 11 16 0 -4
BITMAP
FFE0
CE60
8E40
0E00
1C00
1C00
1C00
1C00
3800
3800
3800
7C00
0000
3000
1000
2000
ENDCHAR

STARTCHAR germandbls
ENCODING 223
SWIDTH 500 0
DWIDTH 9 0
BBX 12 15 -3 -3
BITMAP
01E0
0370
0770
0770
0E60
0EC0
0EE0
0EE0
1CE0
1CE0
1CC0
1D80
1800
D000
6000
ENDCHAR

STARTCHAR racute
ENCODING 224
SWIDTH 389 0
DWIDTH 7 0
BBX 7 11 0 0
BITMAP
0C
18
00
F6
7A
70
70
E0
E0
E0
E0
ENDCHAR

STARTCHAR aacute
ENCODING 225
SWIDTH 500 0
DWIDTH 9 0
BBX 9 11 0 0
BITMAP
0300
0600
0000
1B80
3700
6700
E700
EE00
EE00
FE00
6F00
ENDCHAR

STARTCHAR acircumflex
ENCODING 226
SWIDTH 500 0
DWIDTH 9 0
BBX 9 12 0 0
BITMAP
0600
0F00
1980
0000
1B80
3700
6700
E700
EE00
EE00
FE00
6F00
ENDCHAR

STARTCHAR abreve
ENCODING 227
SWIDTH 500 0
DWIDTH 9 0
BBX 9 12 0 0
BITMAP
0880
0F80
0700
0000
1B80
3700
6700
E700
EE00
EE00
FE00
6F00
ENDCHAR

STARTCHAR adieresis
ENCODING 228
SWIDTH 500 0
DWIDTH 9 0
BBX 9 11 0 0
BITMAP
0D80
0D80
0000
1B80
3700
6700
E700
EE00
EE00
FE00
6F00
ENDCHAR

STARTCHAR lacute
ENCODING 229
SWIDTH 278 0
DWIDTH 5 0
BBX 6 15 0 0
BITMAP
0C
18
00
78
38
38
38
70
70
70
70
E0
E0
E0
F0
ENDCHAR

STARTCHAR cacute
ENCODING 230
SWIDTH 444 0
DWIDTH 8 0
BBX 7 11 1 0
BITMAP
06
0C
00
1C
36
66
E0
E0
E0
E4
78
ENDCHAR

STARTCHAR ccedilla
ENCODING 231
SWIDTH 444 0
DWIDTH 8 0
BBX 7 11 1 -3
BITMAP
1C
36
66
E0
E0
E0
E4
78
30
18
70
ENDCHAR

STARTCHAR ccaron
ENCODING 232
SWIDTH 444 0
DWIDTH 8 0
BBX 8 12 1 0
BITMAP
33
1E
0C
00
1C
36
66
E0
E0
E0
E4
78
ENDCHAR

STARTCHAR eacute
ENCODING 233
SWIDTH 444 0
DWIDTH 8 0
BBX 7 11 1 0
BITMAP
06
0C
00
1C
36
66
EC
F8
E0
E4
78
ENDCHAR

STARTCHAR eogonek
ENCODING 234
SWIDTH 444 0
DWIDTH 8 0
BBX 7 11 1 -3
BITMAP
1C
36
66
EC
F8
E0
E4
78
20
30
18
ENDCHAR

STARTCHAR edieresis
ENCODING 235
SWIDTH 444 0
DWIDTH 8 0
BBX 8 11 1 0
BITMAP
1B
1B
00
1C
36
66
EC
F8
E0
E4
78
ENDCHAR

STARTCHAR ecaron
ENCODING 236
SWIDTH 444 0
DWIDTH 8 0
BBX 8 12 1 0
BITMAP
33
1E
0C
00
1C
36
66
EC
F8
E0
E4
78
ENDCHAR

STARTCHAR iacute
ENCODING 237
SWIDTH 278 0
DWIDTH 5 0
BBX 5 11 0 0
BITMAP
18
30
00
F0
70
70
70
E0
E0
E0
F0
ENDCHAR

STARTCHAR icircumflex
ENCODING 238
SWIDTH 278 0
DWIDTH 5 0
BBX 6 12 0 0
BITMAP
30
78
CC
00
F0
70
70
70
E0
E0
E0
F0
ENDCHAR

STARTCHAR dcaron
ENCODING 239
SWIDTH 559 0
DWIDTH 9 0
BBX 12 12 0 0
BITMAP
07B0
03B0
0390
03A0
1F40
3700
6700
E700
EE00
EE00
FE00
6F00
ENDCHAR

STARTCHAR dcroat
ENCODING 240
SWIDTH 500 0
DWIDTH 8 0
BBX 10 12 0 0
BITMAP
0780
0380
1FC0
0380
1F00
3700
6700
E700
EE00
EE00
FE00
6F00
ENDCHAR

STARTCHAR nacute
ENCODING 241
SWIDTH 556 0
DWIDTH 8 0
BBX 8 11 0 0
BITMAP
06
0C
00
F6
7F
77
77
EE
EE
EE
EF
ENDCHAR

STARTCHAR ncaron
ENCODING 242
SWIDTH 556 0
DWIDTH 8 0
BBX 8 13 0 0
BITMAP
33
1E
0C
00
00
F6
7F
77
77
EE
EE
EE
EF
ENDCHAR

STARTCHAR oacute
ENCODING 243
SWIDTH 500 0
DWIDTH 8 0
BBX 8 11 0 0
BITMAP
03
06
00
1E
37
67
E7
E7
E6
EC
78
ENDCHAR

STARTCHAR ocircumflex
ENCODING 244
SWIDTH 500 0
DWIDTH 8 0
BBX 9 12 0 0
BITMAP
0600
0F00
1980
0000
1E00
3700
6700
E700
E700
E600
EC00
7800
ENDCHAR

STARTCHAR ohungarumlaut
ENCODING 245
SWIDTH 500 0
DWIDTH 8 0
BBX 10 11 0 0
BITMAP
0CC0
1980
0000
1E00
3700
6700
E700
E700
E600
EC00
7800
ENDCHAR

STARTCHAR odieresis
ENCODING 246
SWIDTH 500 0
DWIDTH 8 0
BBX 8 11 0 0
BITMAP
1B
1B
00
1E
37
67
E7
E7
E6
EC
78
ENDCHAR

STARTCHAR divide
ENCODING 247
SWIDTH 570 0
DWIDTH 10 0
BBX 9 7 1 1
BITMAP
0800
0000
0000
FF80
0000
0000
0800
ENDCHAR

STARTCHAR rcaron
ENCODING 248
SWIDTH 389 0
DWIDTH 7 0
BBX 8 12 0 0
BITMAP
33
1E
0C
00
F6
7A
70
70
E0
E0
E0
E0
ENDCHAR

STARTCHAR uring
ENCODING 249
SWIDTH 556 0
DWIDTH 8 0
BBX 8 13 0 0
BITMAP
0C
12
12
0C
00
F7
77
77
77
EE
EE
FE
6F
ENDCHAR

STARTCHAR uacute
ENCODING 250
SWIDTH 556 0
DWIDTH 8 0
BBX 8 11 0 0
BITMAP
06
0C
00
F7
77
77
77
EE
EE
FE
6F
ENDCHAR

STARTCHAR uhungarumlaut
ENCODING 251
SWIDTH 556 0
DWIDTH 8 0
BBX 9 11 0 0
BITMAP
1980
3300
0000
F700
7700
7700
7700
EE00
EE00
FE00
6F00
ENDCHAR

STARTCHAR udieresis
ENCODING 252
SWIDTH 556 0
DWIDTH 8 0
BBX 8 11 0 0
BITMAP
1B
1B
00
F7
77
77
77
EE
EE
FE
6F
ENDCHAR

STARTCHAR yacute
ENCODING 253
SWIDTH 444 0
DWIDTH 8 0
BBX 9 15 -1 -4
BITMAP
0300
0600
0000
3180
7180
3880
3900
1D00
0E00
0E00
0400
0800
0800
D000
E000
ENDCHAR

STARTCHAR tcommaaccent
ENCODING 254
SWIDTH 278 0
DWIDTH 5 0
BBX 5 15 0 -4
BITMAP
08
18
30
F8
70
70
70
E0
E0
E8
70
00
C0
40
80
ENDCHAR

STARTCHAR dotaccent
ENCODING 255
SWIDTH 333 0
DWIDTH 6 0
BBX 2 2 2 10
BITMAP
C0
C0
ENDCHAR
ENDFONT
